<?xml version="1.0" standalone="no"?>
<!DOCTYPE svg PUBLIC "-//W3C//DTD SVG 20010904//EN"
 "http://www.w3.org/TR/2001/REC-SVG-20010904/DTD/svg10.dtd">
<svg version="1.0" xmlns="http://www.w3.org/2000/svg"
 width="700.000000pt" height="700.000000pt" viewBox="0 0 700.000000 700.000000"
 preserveAspectRatio="xMidYMid meet">
<metadata>
Created by potrace 1.14, written by Peter Selinger 2001-2017
</metadata>
<g transform="translate(0.000000,700.000000) scale(0.100000,-0.100000)"
fill="#000000" stroke="none">
<path d="M4014 5868 c-35 -16 -48 -60 -68 -223 -3 -22 -15 -99 -26 -172 -22
-143 -19 -170 23 -198 29 -19 73 -13 99 12 18 18 31 71 43 173 3 30 8 62 10
70 2 8 7 35 10 60 2 25 9 72 15 105 14 87 12 130 -7 153 -22 25 -70 35 -99 20z"/>
<path d="M2981 5736 c-12 -13 -23 -37 -23 -52 0 -16 34 -117 77 -224 114 -288
106 -275 162 -286 36 -7 81 27 88 66 4 21 -58 197 -130 365 -7 17 -19 47 -26
69 -30 84 -100 114 -148 62z"/>
<path d="M4945 5458 c-11 -6 -23 -16 -27 -22 -4 -6 -68 -87 -143 -181 -75 -93
-141 -181 -146 -195 -26 -65 39 -129 106 -104 10 4 87 95 173 203 141 176 157
199 157 234 0 62 -64 97 -120 65z"/>
<path d="M2195 5150 c-24 -9 -52 -39 -56 -60 -9 -42 14 -71 129 -162 64 -51
124 -98 132 -105 156 -126 163 -129 211 -105 40 21 56 61 39 100 -12 29 -377
323 -414 333 -12 3 -30 3 -41 -1z"/>
<path d="M3615 5123 c-11 -2 -56 -11 -100 -19 -290 -56 -560 -222 -746 -459
-173 -220 -259 -458 -274 -755 -7 -133 -14 -228 -20 -260 -3 -14 -7 -41 -10
-60 -43 -262 -163 -574 -302 -785 -65 -98 -91 -134 -209 -282 -43 -54 -98
-124 -123 -156 -26 -32 -54 -68 -65 -80 -36 -42 -82 -122 -94 -164 -38 -130
-10 -273 73 -371 25 -30 297 -249 385 -310 122 -85 318 -79 442 13 27 19 102
104 169 188 66 83 133 168 149 187 15 19 47 60 71 90 242 308 617 564 1000
683 46 14 129 40 184 57 444 137 775 498 875 955 37 169 33 359 -15 589 -3 17
-21 71 -40 120 -159 424 -514 720 -975 812 -40 8 -345 14 -375 7z m330 -168
c212 -30 451 -152 611 -313 589 -592 344 -1592 -452 -1843 -54 -17 -148 -47
-209 -66 -378 -119 -734 -352 -1000 -655 l-50 -56 -115 92 c-63 51 -207 166
-320 256 -113 89 -206 166 -208 170 -2 5 19 39 45 77 244 342 387 765 408
1207 11 215 28 309 83 445 148 371 512 652 892 687 36 4 67 8 69 10 6 5 189
-3 246 -11z m-1745 -2629 c47 -37 92 -73 100 -79 8 -7 29 -23 46 -37 17 -14
46 -37 65 -52 179 -139 329 -261 329 -266 0 -4 -23 -35 -50 -69 l-50 -62 -295
294 c-162 162 -295 298 -295 302 0 16 44 52 54 45 6 -5 49 -39 96 -76z m39
-397 c160 -160 291 -296 291 -302 0 -6 -8 -19 -17 -29 -16 -18 -28 -7 -314
278 -296 296 -297 297 -281 320 9 13 20 24 23 24 4 0 137 -131 298 -291z m71
-401 c0 -8 -48 5 -78 21 -38 20 -317 244 -353 282 -38 42 -66 117 -61 163 3
28 17 16 248 -215 134 -134 244 -247 244 -251z"/>
<path d="M4313 4642 c-30 -5 -63 -48 -63 -83 0 -21 18 -46 78 -106 138 -137
216 -281 246 -453 14 -78 15 -231 2 -285 -40 -175 -91 -279 -198 -404 -54 -62
-51 -118 8 -149 48 -26 84 -4 166 104 132 172 200 380 197 600 -4 275 -107
513 -302 701 -67 65 -97 81 -134 75z"/>
<path d="M3043 4499 c-42 -16 -133 -149 -133 -196 0 -26 30 -72 48 -74 4 0 15
-2 26 -4 34 -6 61 16 114 94 35 53 52 88 52 109 0 51 -58 89 -107 71z"/>
<path d="M2880 4113 c-75 -21 -82 -45 -95 -322 -3 -69 -8 -127 -9 -130 -2 -3
-7 -33 -11 -66 -3 -33 -10 -78 -15 -100 -5 -22 -12 -55 -15 -74 -8 -49 -54
-222 -65 -246 -4 -11 -15 -42 -24 -68 -13 -42 -14 -54 -2 -82 8 -18 19 -36 26
-40 23 -14 79 -9 100 10 31 28 124 338 144 480 3 22 7 54 10 70 14 75 18 118
31 345 2 36 7 88 10 115 6 42 3 54 -14 76 -22 28 -46 39 -71 32z"/>
<path d="M4131 3124 c-29 -14 -82 -34 -117 -46 -75 -24 -96 -44 -97 -93 -2
-78 65 -97 184 -52 170 64 215 116 157 181 -34 37 -65 40 -127 10z"/>
<path d="M5346 4561 c-140 -56 -226 -96 -238 -111 -23 -29 -23 -72 1 -101 32
-39 76 -30 317 66 185 74 224 93 238 116 31 52 -8 120 -67 118 -18 0 -131 -40
-251 -88z"/>
<path d="M1784 4210 c-28 -11 -54 -48 -54 -77 0 -29 39 -73 70 -78 27 -4 162
-25 195 -30 172 -26 275 -37 297 -32 32 8 59 54 53 88 -5 28 -48 69 -73 70 -9
0 -24 2 -32 4 -8 1 -35 6 -60 9 -25 4 -72 11 -105 16 -33 5 -78 12 -100 15
-23 3 -50 7 -60 9 -59 11 -112 14 -131 6z"/>
<path d="M5231 3699 c-32 -13 -50 -38 -51 -71 0 -59 28 -81 120 -93 30 -4 64
-9 75 -11 10 -2 37 -6 60 -9 22 -3 83 -13 135 -21 152 -23 171 -23 200 8 25
28 27 89 3 110 -19 17 -41 25 -88 32 -46 7 -117 17 -145 21 -32 4 -110 16
-131 20 -9 2 -40 6 -70 10 -30 3 -61 8 -69 10 -8 2 -26 -1 -39 -6z"/>
<path d="M4894 2965 c-29 -23 -35 -72 -13 -104 26 -37 393 -320 416 -321 79
-1 120 89 64 140 -28 26 -345 276 -371 293 -32 21 -63 18 -96 -8z"/>
<path d="M4266 2498 c-16 -14 -26 -35 -27 -53 -3 -43 167 -464 198 -492 13
-13 35 -23 49 -23 30 0 84 50 84 77 -1 31 -175 465 -198 489 -27 31 -73 31
-106 2z"/>
</g>
</svg>
